<mxfile host="app.diagrams.net" agent="Mozilla/5.0 (Windows NT 10.0; Win64; x64) AppleWebKit/537.36 (KHTML, like Gecko) Chrome/140.0.0.0 Safari/537.36" version="28.2.0">
  <diagram id="C5RBs43oDa-KdzZeNtuy" name="Page-1">
    <mxGraphModel dx="1389" dy="1882" grid="1" gridSize="10" guides="1" tooltips="1" connect="1" arrows="1" fold="1" page="1" pageScale="1" pageWidth="827" pageHeight="1169" math="0" shadow="0">
      <root>
        <mxCell id="WIyWlLk6GJQsqaUBKTNV-0" />
        <mxCell id="WIyWlLk6GJQsqaUBKTNV-1" parent="WIyWlLk6GJQsqaUBKTNV-0" />
        <mxCell id="-zmCf4B3LudVhM_SFmna-0" value="" style="shape=image;verticalLabelPosition=bottom;labelBackgroundColor=default;verticalAlign=top;aspect=fixed;imageAspect=0;image=data:image/png,iVBORw0KGgoAAAANSUhEUgAAAhMAAAKzCAMAAACTYX/4AAACZ1BMVEUAAAD///8qPE4qPE4AAAAAAAArO08rPE4AAAAMERUrPE4EBAUnOkcrPU4AAQEAAAApOUwrPE4rO04rPE4rPE0rPE4qPE0qOk8AAAArPE4rO04AAAAYJTErO04rPE4rPE4rPE4pPU0rPE0rPk4qPlEpO00AAAAAAAArO0orO04AAAAsPE8rPE4sPU8qO04rO00AAAAqO04qO04qPE4qPU0AAAArPE4rPU4qPU0qO00rPU4AAAAgKTIAAAAAAAAPFBrm5uYAAACZmZkAAAArPE4AAAD///+Vnqf6+vtMW2o8S1yVnaa3vcMtPlD8/PymrbXs7e9CUWHu8PG7wcaFj5nb3uHY2983SFn+/v5aZ3U+Tl+BjJYwQFIyQlRQXm01RVb4+fnV2NyOl6FueYZGVGSpsLhxfIhkcH1KWGjQ1Nits7r39/jf4uVfbHqwtr3k5+nw8fOjq7N3go1pdYFXZHL29/eLlZ+fp6/r7e5+iZTz9PXGy9Do6evk5ed6hZBAT1/W2t1rd4PFyc5baHYbJjGzub8zRFbKztO1u8EpOUrM0NXBxsyIkpzIzdGZoaqQmaJdanhHVmavtbzd4OOcpKzg4+XO0taTnKV8hpJEVGTS1tr09fY8PDxmcn++xMp0f4tzf4pTYXCfpq45SVqhqbEaGhra3eDEyMyss7r19vfp6+3m6OqsrKwKCgry8/Rve4jb29s1NTVhbnuaoqvLy8uor7aTk5NQUFAlJSWpr7fi5OekpKSCgoJ6enoSEhLU1NS9vb1cXFyoqKiamppwcHBqampJSUlEREQrKyvCwsK1tbWLi4tiYmJPucpLAAAARHRSTlMAgH+ADfh6QYfwv70YluUZNvfr5NO2Oy5e8aX6B97Jw7pPSSMeDnXtKFP0r52Lhm9vbGZbYF2rj4t0WKzJwJLQhmrWp3tymcoAACxLSURBVHja7N1JixNBGIDhQrNoXFCHUQcPKorLxQURBD1+/blgBo1pF1xwPIgiLoi7GHfFbUTEwQUziuBBQc/+O2PKTDtFy6DTgXTV+9xyDS/VVd1d1SYCxjORAf5EE6AJ0ARoAjQBmoCDJuCiCbhoAi6agIsm4KIJuGgCLpqAiybgogm4aAIumoCLJuCiCbhoAi6agIsm4KIJuGgCLpqAiybgogm4aCILy8sb1pamTqy0dkN5uQlOcE2U11QG5F8MVNaUTVDCamL+rHnyP+bNmm/CEVITSyvy/ypLTSjCaWJOv0xO/xwThmCamCKTN8UEIZAmZvZLFvpnmgCE0cScPslGXwjXjyCaKA9IVgYCWJeG0MT8uZKduf6vSgNoYlmfZKlvmfFcAE0slmwtNp7zv4lNkrVNxm/eN1GW7Hk+z/S+iYpkr2K85nsTS6Ub/H724XsTS6Qblhifed7EKumOVcZjnjdRku4oGY953kRFUtXjbVea2+WCWiMi71XvSssdVd1/beS0XFJrOLxZpudNVCXNUx18WdPazSNxfEOPxvF9kTOqP2wTX+O4ptd2NOJ4l9biuC5pqsZjfjexQFLd0gNSva6XROSADknL4Xfb9NyhdhO3W79ibYjIMb0sf7PA+MvvJlZLqhF9/kBe3D6SNPFBm0P6vdOE7NT6BE2sNv7yu4n1kqqheurJ1QeSNNHU18+1+buJ6pFdeneCJtYbf/ndREnSNV6p6tcXY0182ja4Y7sO7vjVRNsZsU0EufDwu4mp8jcfj53VPWNNHNSHIrHWfzUxtFcHR2WiJqYaf/ndREnS7L7ebNdwY6yJx9p20l47hvXLG8YJX62XNNVv2hDZqic7TbzZvz9uUT1h5xMn9Zkwn/DUaklVV71SUz3eaeKYPpGWhzps1x3bj+p51h2eWiDpzg+9u/h2VDpNfG7nIaN61jbRqmHXPu5PeKoqk8Z9TM9UpBt43pFnPBelCd6foAnes2qhCd7HdNFED8wyvZ5hBtAE+ztogn1gNMF+UUMT7Ct30QTnT7hognNqXDTBeVYumuDcOxdNcD6miyY4R9dFE5y37aIJzuV30QTf73DRRNe+87OF7/wE3EQq/giaoAmaoAmaoAmaoAmaMIYmLJpI0IRFEwmasGgiQRMWTSRowqKJBE1YNJGgCYsmEjRh0USCJiyaSNCERRMJmrBoIkETFk0kaMKiiQRNWDSRoAmLJhI0YdFEV6worjORWVdcYUATVmFRcWW0srioYEATv00rRlFUnGZAEx2FdhMMEzQxbqBgmKAJd6BgmKAJx7RFDBM0MV5hM8NEjpsozI7ybHaPx5fLJjZOlxy7N8P0tlw2MeOe5Nj0haa35bGJQvRI8utR1OOXjlw2waXjJ3t3u5REGIZxvK9NJ9CJdAbX3C2bLC6wsALLWwnyFsg7iorRi6OYQVSGY2k1pjVTMzV96OzalUFZIChynB53rw8140f9zfzV555RP9OEmY7BmSbMdAzONGGmY3CmCTMdgzNNmOkYnGnCTMfgTBNmOgZneBNmOoZmeBNmOoZmeBNmOoZmdBNmOoZndBPddBTJAW1JEvHnc5NFpHvqv/jNfBWMGk8L6F/8PrQ5aR6jR3aMGiPpYM5ENx1FoaAAsMh/ZUJ5yo83cZC+GBOzEkaNkXSwZqKbDhSPZnMAwjES8Vcbb+Lt35q4kulgzcTN69BWdMXnAcSKJGLNkai+8yHSadtnf1qB7BGXiftg++FIpPd37HYneApL5bjS147VxDPktwvB5dfgaXdl7+Ma1KWISEQlGQylAKkRCnb8G4UXKfBUrBbmfUA9lkg7h0342lUulNM+Ul76sEEWrR1WioXL9paPwXSwZkJNR9fE+ifA8+WQRMQc/nptERF5/nF+L4K6kH29frIKmxzxzXPzj7OCh6eO+/F2/NxELpFDIFNqzh21wFNMXKvZoM6a/aygcpK1tIOvIZX9gRq3qtiOwFM6VX9hg597allNRIZMzFD5iSDvY58Kj9Jcz4TgCldpl8F0MGZCS0fXhFLIw7vhJzEVVKBC8EUoALwpIV8B8LENWwzIEQ8Iz3iKAnXucc/E6t4B4NnxAeEOeFoHGqGzdki3AcTeQWoD7yQgJYCnr8BdzmfbBNAODZrw0yc33lIHW3QAT7Bngl7DSzYG08GYCS0dXRNw3MbHiGrCKxcKhQRZIhkAMzagGX5Uk0uwOYAoB4CL8hqN9+TvmeCEOQBu7/xmMASe/ID36MyEnAPwYQuSE3j6AJgjK08iIJJl+x1UGyeDJira/1ZBtr4gD9DpmfgCfKVjBtPBmAk1HT0Tq67AUkA14UwvaPNFZrsmotyMs76lmpjRmxDJ0jOx06pZsfbp5U7ulWbCAnilMxMJzcTiR0jePhM84KHmx1MTwUETuz0TK7QGhHomZoG7FGcwHWyZ0NLRM/FeKL6BaiIqiEB+RumZcMwAkAZM5ICvJ76eCYtnyQln2Qr80Js4SAO103Ys6k3UgWjC+uG0Ha5BE4fddsSwRRUsCHoTDKaDLRNaOnom8GRvVzNhdW0eHroc6Jk4lpprH8imN/E8X18p4cwEikuebPDZ+11O0plYT6wr2b23zaecX29i+THfeYomd6eZLVTOTdhd6m5jS/seU/iGdRKWM5zeBIPpYMuEmo5zEw2B10zg9ZuCveU+M7H2IDH7qPRSb+LObKbk6zPhS25Yf2SWtr3BQL8Jdyd4iMZnLvYMehPFZGbRB+zXuBcVnJs43X0o2s+iUQBFe2bnJTX7TTCYDqZMTPvWoX3ZL2MR7yGQlANM/8KKMRNqOv5rE2HKHG/TJtNvHayZuPHw/zbhs5WFpTciRo2hdLBkwnwm/80MbOKmeWE1egY2YV5Y/WbGNfEv6ciTghELk7qE5MXg9Gcx7gr+cUylgyETajou3oRdkj4T7WNgurMYT/kl/nFMpYMhE2o6Lt5ECUCcWhg3C/29CZbTwY6JqdPh3jhZaZACz0aGO4r2bmj6THjJAURd3IoTurMYZJ8H7fcDCqnj0ahyoW+AVHj1ZQMTxnY62DExdTpmavlolRQ8WPZbNlZ6NzTnJjybtIN7XKaVpF3dWcyhLN1eprhvi+wzgSwlWxnOAklObDYwYWyngx0T06bjvfwMWCUFjQVgjpT+G5ownc7lxiIdKKKsP4t5S28syrrYbceRLCoH1IakwvnNrko6mDExdTrqFAAspMAa+bBlp0D/DU2Y0psClRRgm7R9Qf9ZjKdMVF1cOzVh5UibAxJZMGJXKR3MmJg6HXVyA01SrMvp7wc50r2Dau3YF7gcsEm7c3NzefSfxUC8XZMp2TUhB+fUWSCNvhS/SulgxsS06cB74RvwlRS/ZuFg2ATaZOcxT0VYHF7dWUyqlAJfJvcCxYAk5fH2URQSeTB6VyYdrJiYOh1AS8rPJUkR5YY7lSZ+yITynOLwC0IrSV7dWUxUnm235A54WQiJTiofL3GHo01crXSwYmLqdADK8VLVSQoq1YQrexIdMoG6LNeRq3Gfi9CdxSASSszOiEBpr7yAcJpz5TDaxNVKBysmLuetQ3cWc4G7fusaS2PDxKU9k/fOYi5oTKaDEROX9kzeO4u5oDGZDkZMMP5MzlY62DBhXliNnSFNmBdWY2dIE2Y6xs6IJsx0jJ8RTZjpGD8jmjDTMX4GNGGmY8IMaMJMx4QZ0ISZjgkzngkzHZNmPBNmOibNeCbMdEya4UyYf5t84gxn4tJmfiJME7/YtWMUCIEgiKLNMi1zh8nV0MBs477/lRa2kEJzg4H/z/CoqDCBCUxgAhOYwAQmIjChMOEwoTDhMKEw4TChMOEwoTDhMKEw4TChMOEwoTDhMKEw4TChMOEwoTDhMKEw4TChMOEwoTDhMKEw4TChMPFKax5RceQahAnVRm615ZjweR+BiXfqWVXZgzBx1f4mmAlMhOvJTGDiXktmAhOP+mAmMHGvfZmJOU3s5/KZreXcY6Z+7NehDcAwEATBQ0FJATExdh/ff02BQeYe6aeG1UlnNbFmmeaKg2riKdcThtTEKNmIAmriKtsVhNPEXbo7BqcJfSacoXCaUC/Hb8bgNPGW7o3BaaJ8MXQTe93E6coXQzex102crnwxdBN73cTpPnbstSdtMAzj+D7clUfaWcppUgpCQS0QZGVQkLOnoMTDWg8DkZiZaNx0iSYSX+inWx/RNiF2cSYQTfoPLwhXcr/pL4GAj9+nj9FHNuEnhAjlpQ2MtSBhYOQl85gJ09fL0f0p2YOXckzQxm1iM5k8CVTvMa5GTQRUx8S76gUT0zCa8mFcjZoAHBPvKjsTCQ+wfiwdNAH+t7/4EAZi7X79iIhgtqSVxCLyCoDtQ3PmBn/c9R3QWJJXpOloJ7PltbtCTTQzuvXdEa2WQMuuSEoJENs510USdFd3i1KtZ5goefoLnGPCprGa8MdibPKqBbbfTd3k5sALzdmKexntFfVWIWJEaTFNyTRhzlpdny8J80MTm2xKKqtncd7mCjVRyBRgmuhdfQeN85V6sjuLtVqUaTfoHsst7YUu9iGTX6rsyjsmbBqrCUJLi/i8CUDbAh8H0F9lhRBwQ8Sb3AbAmyaeZ8wlAUiFoYkTwPCA7q7dlSBp9k9hmtAWeTwWFH4COoudFBAis8YuahEgcQxZYIHtc8eETWM1UdP1kBfAtLtYLLrK4P0APDdZIQIsE3GqAyBvmnieAf27v0FWhyaiQEcDEh27K0HicocsEy4hgWGHROGNgZPPt30kRvdgeGFLikP2AWjdOyZsGu/vCfNNymgPPP3AI+skQp+h2E3DMrF2+Dyje8lXmP6TCQboJKgJuytBou2vcKaJ7UrRi2GMlhZOuZoyOC08mli+6miFrmHCQ00sOCZsmoiJwQEHHA2enybrXgdWiTh3PQucL0LOAXiwTPjCgEhGTdhdCRJGrAZME2Gk/aB5v3FA2x+lF04fTQTKHHDnmPhHkzPhlfhUobpjPvRWXNV/EJFTvjL5zAHmBS36rWiZ+NFmmRqRR0zYXKEmUKqKlglVKMAodr3UUxsJr7ATzCqENfa8pJ8dub44JuybnAncxl11DebTPJuW6l1yhmjaFedngEC5z/OWifUZqfG5NhgxYXeFmogsti0T2G/Mwih7LHnOOVTqmZn8ZdLYubtcdTcsxRwTkwqvb24DuJWwnAQwtYa3ZF15S85/VpMJr++B31PTLfTcR72Cr4K3ZF35zxwTEwyv7y979/uSMBDHcdw/7sN1XphYrgdlS/s9nZmC0iiGJFSUSaI+qIhIopAeCP2F4XywTT2i+eSOfV9PB3v0Zse4L3fvd/X1w13grccrDUTiv+W/qIk/0F45NRFETVATs6gJamKWyk2YLYSMBRYQ7ARBxVNERE1MqdxEz0XQFjugJuLehE1NUBPhAZgbxoreYFTDwgRjrAbHzhfKgNEu5J/N2/qgDMEal/XDHNCySpUsNaEcRDc3AJOznVSwiSeWTDmjWrKff4Jxbu42ubuT/oRglXJrkIbJO0m3dERNqAbRzQ3AwHbhNzFdO4wVANYQRh8YGkB5DYKNgX2eS98B6BeoCdVgKeEBmEVNeLudH/cwskDnapJOSrAMkGHJhyGA/RE1oRosIzwA4zex5zdRmjRR/YKxHWhCTJ51v7wm8tSEahDd3AAMei4EeweKfhNNb+2ohptoAcel1Ie3dmxSE6pBdHMDMCicmqhsmM6ZNX3M2pnay1u3w81wExfX4rmDLl/t1uoONaEaLCU8AANntIEfg19tW/AUeRbtb249ItxEwz6r5oDXJh849C+qHOgvoQdqQo6aUB30l9ADNSFHTagO+kvogZqQoyZUB/0l9EBNyFETqqPztmXi2wSdyy8T3ybo/g6Z+DZB9/zIxLcJ7T8UunwmdGqC7g2UiHMTv+zdoQ3EQBAEwQvs84/rZY3kJqZGrkaLV8XHvuhznzZhh/ixb5t4da/8d1/2yo+uPIIJJphgggkmmGCCiXOYWEwUE4uJYmIxUUwsJoqJxUQxsZgoJhYTxcRiophYTBQTi4liYjFRTCwmionFRDGxmCgmFhPFxGKimFhMFBOLiWJiMVFMLCaKiT97d9OTRhSFcfw0MkKMJrwMEuVFRVAb8Q2NRrt9BqJpmjZt0m5rd1006adw022/RD9lgyPOMIDAMDeG+5xfWDCbWf1zNid3rk+bCGgTPm0ioE34tImANuHTJgLahE+bCGgTPm3CiD3nVDw5dfZEaRO+VNnZ9/adckqUNvEk43ie52REaRN9qccmdExoEwODQseENhEdFDomtImITFnHhDYxKPVOx4Q2EbEkSpsYcIQjUdpEyNpifRM7TJswY3PBvp0fpk0YcQjfoShtoqe5jb7tptDTJkRWawjUFuWGpoA2kbhdF2HurpDTJkpVDKqWhBt9E+t5ROXXhRp7E/UchuXqwoy8ibcYbZGu7xJtIkkXGOdCeFE3cYbxzoQWcxPLdlwbLNpEYpbwMtrdOW8TV5jkSjjRNtHCZC2hxNrEpmX3zmsT86oUMZ1iRfhQNtFcwbRWCHfnjE00apherSFsCJs4cDEL90DI8DWRLWA2haxwGdnEm9cjpqXzmFU+LVRGN9F5LcabqOcwge7OxzTRffbQeegaE32/8SZuEM+NEBnXBPq6/n8jou833kQbcbWFB1UTJ4jvRGgwNbGM+Jh250RNHGM+x0KCp4k1zIfniDFNEy3Mi2Z3ztLEJZJwKQw4mqgUkQSS3TlFE6tbSMoWwRFjhiYaLpLj2r87J2iiVEVyGI4Y299EtoAkEezOrW8ivYGkbVi+O7e9iR2YsCM2s7yJczz79O0zhn3t3CLkLvT4+z16fv7Cj4+9X9i5WMzuJtoI/Pn74S5mE7f3kSbs3p1b3cQ1Qr7f//sSswlgqAlci7X+s3NmvUlEYRg2Lom/Qe/1wpgY70xM9OL1c0BmxrIvM4CVVUApUEUogjbSphW7WW1Valu3at2qcV+jiUv0RwmIHZZiHBlrJTxXELj48ubJmTNn+ZpyQkdE5vix7Ap1Yg0q8FHMnQHA9988YsgD1v4wc8NbcuJEYBixXLczOQk16YPOZPqnEyajjpWeHaPjVvykla8YN+dEn9eb1yeer0wntqKSfXFEyQ7wFEHUOYJTSbuqP1V0IhqIwhE+NmK5MQo1jeeHXxwqOyHkkoI0n3h024UKWrc9d3NOaEr/0K5IJ2r2xoNuCIljAH8eQPIszvgAC4kmOnFpGrAOCUDnRajpINCZKTuh8TukOaZeq0Ilrbt3roATnfvhnjugnRFnbwemJgHbEcaYB9K6QM+sAPaxNnBqZPmd2IAqZigK9O9nwfMAunRgPdcGteQwEcNZAJhs7gHnAajJDhwf++EEYx7EohMcFzehipa9YtycEzqHQ+29fRpuTn+Q7Q+G7DeNrL077zp7KQu/zt6b6YL+xoxvMLfsTmxBNbPEcZyZToJ/DGBOwyaPPJqOFp0YGs2wSN8+PxS9UHRCBRwP/nBiPsTcl5zIB7tQTau2527OCSrit8JtBNTmh8DVQPRkQgXBK4ScItDLCdf8JqQtzTtBlchooF2mp99eQKsDfxGAcchOKmC66ITKmtBDH2eBxzVOaDDbk5XmE1FuBtW0aHvu5pxIDg9bOgC4dUCIsgAyR8U+yuydhM3c3d0dIJWvh0nqHcvphNRAWyJEJS3PMVd5Ghp5dCvdYT5jCh0hdcEJHE1YI87hqxOModYJR3xWcgKDftTQmu25m55PlHCfBiwlJ4ydQOhaKuzTH/EVESB6Doczgiwn1m6qr+nD5wBR6s1bKiKngXaJ5wYUcZn1/Kkp5wELcLwnYIzc8hadEIL97ONwImdzOmqcwAnOLjnhY46jhpZsz62cE1d/PDsOhs4AbI/ey3UAMY04cRLwkV2GE2vXb1xXXxN9ek309BWVaGJvnNdASVpx71w5JzA31qsaHBeHuUjHfaaXNQ7MzBh1GJof7tgbzqIBtU4UjFi3bt22JZwwvHl7Z4FLfVy4/opkNtCWUN6JFmzPraATWXf4lq4DsI0z4xPA5FS3dtQEoSvO+HvRgFondheM2LNn85LziSeXnz2gJ09I++ZeE5eEFXei9a4Yr7D9jp0b9zSAyLzwioi+fP12d35PQ3bhX9BaBypWlBP7fjlO0NOXRK8/vXx7fb6JcUJx2uOEwtQ4Ic0nGjmx8I7e7Uk1MZ9QmvZ8QmkavXc0dOL9s4WPC1/+7L2DISJOq+tYqgg9FsnbUY1rKnGbd2BJ2u8dMuNlz7D4Nb+/PkESctcnpKLHDGMB8qOOo/sn8JML5EUVrDFpD6VOYyna6xNy482RPCf2KbuOWV+0AxjhaBK/QlPrRK85DRxkWNTTXseUHe9+mU4ov99RXzT2kx3i83D3lAuYTDLGK6QpDW5WjdZpPIhzRMTDa2RSesBDvDEcigE4yQioo73fsXS8IzedWl6sjtcycCmRVMFPRJ6f8fJ0If5CkDFONMeWBkULHkqImKM+DTcuwE8Xdc5y0Tpyn0twrivz1DfhYsKjQZqAh8yGjABAPeZGHe190aXjZcc4TR8dRmW8rDZ8bo7G2bOF75af8fLE+U9DhhPKN1lnqIj5ONTcDVHkKRojA4trZSeCzLQjFhNKz44umhY7zBfhoRSLAg5jn4ha2ucnGsR7n3hRNHKOynitFAyxeVXp2bEYL18UR44TyvcgYSjXQ3E7MEwlzkToORAtO7GPiMtNo+REjorcg4c0KHJhLIta2uesGsV7gUrMVMXbR5TQxEpOLMbLk21ZnJDYusTgJiYpJ+Ah+S0F0idoDjhZLhoHdWGiSMmJAZoo/B6Dh+ZQ5GYnammfx2wY717iLQWyVfFm9TknMa6iE4vx8hRBPctzblsqGukwXUDarM3i0XNXjFIiDv8oWuycBYboGvopDzcdhUpng4fcKOL1oY7Vq1oVeU7Ux3uFBiFoZtnKeEf2Hoc4SCcRJ2ExXp6uLJMTEjvqi8YJYnzQkPG0+YiIAzR+kSmLPEBTZ4MURRe9OGfnuNEgSU6cyaOa9v0Oibp4hR4azJEGlfGqw9zjY/cSVtygzP1yvMvphMT2+qJxk07BNKftTvoA1wDjt9HpkhPqQ3Gn4QRgNzi7EM0w80ex6ETwGKpo3wODRH28qlOB8KFsdbwzp+4lBnqB6XjiSjne33Ji31+5L9oYdWdEQIRmIZP2fVHps/Lx/tt75cI9yo1q6SHk0b5XLn1WOt76cWK5+0+E/AEuaIMs2v0nqp2QG+8KcKLdp+b/3iv/zt4ZozAIBUF0IUXAUqxSWCWgpSB4gSXNP5iXyuFiSIQUMV//R1h35llYafW6YWcC+6wsYMoJ9t6ZAMEJ9mMe2InAHl0LmHKCfdsmMOVEYC+/BWCc4H4HneDOD53gHphPJ7gbaAJTTgTui1pgyYkwP+N9fL0/hDjcIT463CuP4u9IOMmJHB5ZX8venEvdSuk8G487kf9H22zMzgGycTohTaVbqBoBA9AJuda6ntp/Nk4nJm6FrqXweCRMJ9Kzc5BsnE68uWgct0fCdCI1O4fJxunEzKAxBsEE1wk56T88jzvRiaTsHCkbpxNfdLpMJ7BAOyG9LtELLthOSKu/aQUYcCem7JzZOJ2I1XM7LNB+snc3KwlEYRzGzyJ3fWwjWytIQbs2EUTOYVbSJmjZ3lvIq2h7toObGVAQHShNU0usi2qaCc6MIH7kat7nuYYfZ8Bx/gcT//vEWMJHwpiwrTHPncsBbUxsVnaeO58D2pjYODvPndMBbUxsP8+d1wFtTGzVieB345hY0kFVzkfCmFiz8/wOaGNi266OFGEi0yEmMIEJTGACE5jABCYwgYkkTNgwkYQJGyaSMLHL9PKU3DCBCUyk+woCJwg+TEdHjXwd5waYEGxCa+21tG7UMYGJrAnTeZiExvi1aTvsPUYmhuGzkhsmYhO+cZ8GfnOka2buBp3ZPeeEeBPTbvzsaHUn3rvrDPo8OzDxa+Lbn4fjZi8yMfRamBBvwjf1O8+f9HXDe3ED3TWYEG9C90Pz6b/N2u3ea2Si1h4ruYk3wW9WmMAEJjCBie26KZZOy/vH5ZIiTPxVLlSKhwVH3N46JpZ3UXEcp3CtCBP2oHCi+FcNJlKVKhwTmMh2WnGKHBOYyFTimMDEQnu3e4owkUns5jom2J/ABDs1mGDPChOK3TtMLMQ+JiYysaMbhYls7G0rhYlU7PLHYcLG/R1JmEjFPT9xmEjFfWBxmEji3kAbJuK4XzQVJpK4h9iGiSTuK7dhYlddVld1qWQm1sRZdXVnSmRSTZys8iD43fkPe/f+21IYx3G87iIk4hr3iEskriGR8ItEPr5rq+dUL9pu682otrpqqVFrp1jWLdYxm2LY2NznTtyvIXEJfxRdOS3tcaijbH3eWbItWZblySvnPD1Pn2elaWL6RPxaE6crSq+SNDFvFH61USW4dl6KJubOxK83c66i1CpBEwsm4HeaUHL7ikvPxNjx+L3Gj1WUViVnYsQ4/G7jRij+ToP+XcxEztq4REVaOx9E/ypmItNqFNZqhZCsJsqEGqmxTP5Efj8zkWk5Cm25QkhWE/hWmfC13OX+fmYi01IU3lLFl5iJgWZiOAovvXbOTAwwE0vwZy1RKJiJgWViDP60MczEwDKxCH/eImZiIJlYCTlayUwMGBPTJ0KeJk5nJgaGidGzIFezRjMTA8HE3AmQrwlzmYn+b2LyDMjZjMnMRH83MXY85G38WGaif5sYMQVyN2UEM9GfTczG32g2M9F/TayAkM5iQG5mUiErdda3OzRItW07Nm9IfWS3gpnoryaWI1MiyasLNKGq+tEEljMT/dPEKmS1qarXWKAJIMcEVjET/dHEEGTloV2u/QC0TZcDGzuBiqag8pK7z8Q+Xyt2tdQ4Ix1Qk7HaGYl9M2E2GbjMvaMtWYFMQ4pnwkBElvCeODPxpy1GduvDCJEd0NJOhJxHcTBiVzXVpUyEfCE4gnuOll9qg5qSna1Ptn01YW2JWCGYuNe7BdktLp6JRre701j7mJmQd2282gVr7R5AexxA5DASHqCcbGbad/ocUHHEClSdgpo2A1X7v5rQeB0QTBj1KnzfmKKZ0PT9hJ6ZkHWTcDeFgKYNHLRaADsM4LZeaNaTw0xKvhyAudJ1yLkJarIDe9vTJpSWZggmeD5sxg9NLaqJqg1wXdmk77b19Pq6OoDKgNLUCcQMvmiPFdx9ve/gUWZC+gBtoR7ied5CB6C9D+CKhosE7p0LpUwcadvPIdZ7/EjoRMqECthbnTZxza+8lTHRWb0DP7awSCYMDofa3dsAF2/czDVV++2XTZy9pnPL4dNxeA32+v07YLzU7WluYSakD9AWijbZv6Q3QHsKgOmInVTAuZQJVUWtEcYwB9z/wYQGPdF4Zj4R4rvxfRLHc1N2f2SCUnkr4DIBastd4LwvdKBWBavb6nfagHreesFrRqycmZA8QFvIT33DdUx5XktHjt67GtNZEmZ/gNRfTGB3bcVOZ+v5k8qNP5pwhHsyJtDsRU4zRxfDRKS1tVwHwGUA/BQHsH+3rZH2l3Wg0lJTU+MjlSeqjBgdzITkAdpCjzci1RaLUXuwy7mpHNgb9Zl2XnWnTFirm7j7wdqWSqfjBxPYx9szJjzKvcjpJ8dzv3nvI6p78TLXxPyhBcwnUiYagPI+E6YqwH+hLugxBjyprLBt3R7cb2UmClgb12ogb+Jr5/TuOdHDZ5RrYti0kUMLNXE+fe/Y7E8AXNTo5nXALo3t5AHAQ3bkq+RNTBoH8eQ38ZPjuWnji5fX7/B1b+9cfPa9iWXDhg0bObQwE7jSXq9qTtpa+Z26W8p6znSou9tkwJFrrbqyYBx5K3ETEpuE5TchvsWY6MGZR7fpwQPSv7iZ85+wv6gozETcFbxq0AGVSWXyJNDRVaNvM8O6I6z01kOkkjYxAv+iNevyRWS584yIPnz8dOPautymrWXrHUVIuE4UM/HrBD18SvT83dOXF69JXCeKamJ9iZkQ5hNFSphPiJq484peravLN59gJiQq2nty9VSBvPnJgO/a0lXbq3XgZwmvO8RNvH505+2dDzmvO9haeTGbM6EwE/UbriA7zhSx++sa8JN++nyChAp+PiH9R5eRkZko4Dmm5PCKGLHEgM1KDqIV/hxTNhO7N5xk944C1jtEhjfWFKxpVgFW19Xefb0b+u4dbtK2nQ4kkMq8C8ABpRViCesdRTbB7h0FtVB6eONPqH0T6WM4RoGGWv6bCd5QxluERWd1uwuiyb8uKm2ivtGnd5mBjojSdJY0ffeOw2RscZrc7Doh0VTJ4TVSFwcX9eAqr8Nm+mYiyUFDW5HOYWq0QbSpiqKb6FbS8QAd4uClUwanYILvaaAAMyHVGKnhbaCzQCsd0lE7EBdMGNLvz0t3oj0O0cYoim/CQLthM1FoF23kcEEw0QaESc1MSLVYYni3p000dlAy24QG2CGYuFwF0RYr/oGJaOrzCSrbSY+BkGAiAVwiHTMh2ZCfD28ife84xp22qHAyvwm3B2INVvwLE9e+mthHV4ADgolKwEQ6NseUbpXI8G40fSl2PpqaY4YrsIf0kav5TSQ6IdIqxT8x0ZW+d3TuojobtjMTMp2Rqqe+tqBDE6zp8gC2Nl/dAYrmM1G9B/kq+j4wAXI5n5pjtgCbKHlKyUwUtl9UusTJGGK0Cb9e8feLCpD9h3x6bRzYckjpraSGLBNsPiHjvvJmane1/8Zyw/+wr1xdtdOKndQDgD2z+gvnT+i6bvLhHVb8Wv/H+RPWm9TSpqe7ANi6KDunJp3f6+OrK/FLMRPsPKvvYybYuXe5sfkEOx8zEzPBztH9zN4drCQUBQEYHhESJAtECoQkSEFRF4LgpnZDGx/Ml+rhIpsGL2VXuedc5sD/uXAvP1dhcOY3vjvYt32K5wR7+St4TnC/4xRNcOeniia4B1ZFE9wNPIPfmNwXNTwnyr9DvP95Hd4PX+9mX487xI575dwrT6031GsNe5JHp4mPTgM00WR2fpyNR9Tsc6aJivlIrzGaS0g0kdJ0opebTCUmmkhq1tdL9WcSFE2Ydmfnx9l4VDSR2lgvMZa4aCK5ldZbSWA0kd5O6+wkMprIoKv/60poNFHVxuz8RmKjiSw2et5GgqOJPLZ6zlaio4lMFvq3hYRHEzVSzc59Nh4fTdRIup57+CAFoIkaKf9i/PQoJaCJGgnXc49epAg0kVF1PffkVspAE/lU13M/h52N00TLlvptKcWgidzG4WfjNNG6gaoOpCA0kd9a11ISmmjB672UhCZacEcTNEETNEETNEETNEETNEEThiYcTRiacDRhaMLRhKEJRxOGJhxNGJpwNGFowtGEoQlHE4YmHE0YmnA0YWjC0YShCUcThiYcTRiayOUt5g5lmrgOz4kjmnA0YWjC0cQne3f3G0MUxnH8pHZ2mw0JmpJmJQjZ0gsvcSMRF5JnHhuxS6oblRRFhAQJUfFar+GCiLfgwoZElYhdUYQm1Gu9BH+U2e1mhieGdudMe6Z+n8u9mky+OXPmzM6ZKjShEftTpkMTQ9AEmgjb91LJLpU+F56z432RKzIlNBGZY9WPmXufMHfvQhNo4vcmCs/bB/sLhWLuU1//y06niXf915Tp0ISgu4liIXPsTfHBe84VvmVKz7/mMU5E41gFnU18elG5djx5Mdj7IWO/GcC1IyLHKuhu4kfxW//HBy+dJt71PkET0ThWQe+1Y9fa3uLgAHf3vsqU+EUBTUTjWAWdTfBAf+FL8e3Xvr6Xr50mcn0flenQhAdrVmjiV2gCTUhoAk2MquaYihI0MQpa0ASaQBNoAk2gCTSBJtAEmkATVWjChSaq0IQLTVShibBYaAJNCNYMFSVo4k/QRBWacKGJKjThQhNVaMKFJqrQRBgWWWmniRUtaRUZaCJkM1qsZrvZSkXlw9RoYhSkW2zbtupVdKCJsMXKTaSitGqFJkKXbonWMIEmwhez7GgtbqOJ8NWnIjVMoIlREFsWqWECTeg1N7FkYXzCv8UXLknMVYZCE9okFiSbaCSakgsSykBoQo9pk6ZSLaZOmqZMgyZ0mJ2k2iVnK7OgieAmN1IwjWbtx40mAquj4OqUQdBEQBMbSYdGg56RoYlgJjeQHg3mXD/QRCCJJtKlyZj7UjQRxLQppM8UU+5K0UQAcxpIp4Y5yghoIoCZpNdMZQQ0UbulpNtSZQI0UbME6WfEPBNN1CxJ+iWVAdBErWZTGEx49oEmajWLwjBLjT00UaN5FI55asyhiRrFKRxxNebQhPYZ5uZ9xzLda3qoi4fcINpz+nFnfmsH0U1mzj1e3WP0LBNN1ChLfm7zgfwBPp/dlM93c2c+f5a25TjXynw66zTRmr/ezrfJV1aNOTQxMumYqphOftbzoR5atZa7iGgDbyn/spbvddCZQ9zmNHGQaA/zKvI1XVXE0mrYInOex2cTVqq+UsV88rMx13kqS12nTrhNHOf75DjMJ4eaoCO8iXzNrxRRn7LUsEXmPI/PJhZZllWuYjH5usrcetbJwm3iXiUEusK5bKWJ/dy+inwtLhdhWdYiNWyROc/jswnVbNvlKuLka+OzVma+2OE2cZW3kmMz8/ryfOIR8zryFy8XYdvNavgic571N7HcNkVqWR39Rfbp3Yfc5jaxj/eRYye3Zyv3HYfWbCZ/dctS9tharqoi0IQR/jlO7D+/koi28lW3icO8O0tEbe58gsjoccKDJvTMJ7r4yCY694CfuU303OLt52jHXm7zmjB5PuFBE3ruO2gdtz86wLeuuE3QnRznjjAfzXpNmHzf4UETetYn6NzK3Z17L3SR1wRdvvA4c+1SB3lNmLw+4UETI5KlIIxex/wFmhiJJIXBiOcdHjSB56ISmsD/JyQ0gf9ZSWgC/8eU0IQBs8xxPcP8D5oYt+93eNAE3gOT0ATeF5XQBN4rl9AE9p+Q0AT2qZHQBPazktAE9r2T0AT2x5TQBPbRldAE9tuW0AT25ZfQBL7fIaEJfOdHQhMgoAmQ0ARIaAIkNAESmgAJTYCEJkBCEyChCZDQBEhoAiQ0ARKaAAlNgIQmQEITIKEJkNAESGgCJDQBEpoACU2AhCZAQhMgoQmQ0ARIaAJ+Dh2MpolRQDuASBOjYBSgAgDjNnid1qWtiwAAAABJRU5ErkJggg==;" vertex="1" parent="WIyWlLk6GJQsqaUBKTNV-1">
          <mxGeometry x="84.5" y="-691" width="531" height="691" as="geometry" />
        </mxCell>
        <mxCell id="-zmCf4B3LudVhM_SFmna-3" value="" style="edgeStyle=orthogonalEdgeStyle;rounded=0;orthogonalLoop=1;jettySize=auto;html=1;" edge="1" parent="WIyWlLk6GJQsqaUBKTNV-1" source="-zmCf4B3LudVhM_SFmna-1" target="-zmCf4B3LudVhM_SFmna-2">
          <mxGeometry relative="1" as="geometry" />
        </mxCell>
        <mxCell id="-zmCf4B3LudVhM_SFmna-1" value="RECOS" style="strokeWidth=2;html=1;shape=mxgraph.flowchart.start_2;whiteSpace=wrap;" vertex="1" parent="WIyWlLk6GJQsqaUBKTNV-1">
          <mxGeometry x="120" y="80" width="100" height="100" as="geometry" />
        </mxCell>
        <mxCell id="-zmCf4B3LudVhM_SFmna-5" value="" style="edgeStyle=orthogonalEdgeStyle;rounded=0;orthogonalLoop=1;jettySize=auto;html=1;" edge="1" parent="WIyWlLk6GJQsqaUBKTNV-1" source="-zmCf4B3LudVhM_SFmna-2" target="-zmCf4B3LudVhM_SFmna-4">
          <mxGeometry relative="1" as="geometry" />
        </mxCell>
        <mxCell id="-zmCf4B3LudVhM_SFmna-29" style="edgeStyle=orthogonalEdgeStyle;rounded=0;orthogonalLoop=1;jettySize=auto;html=1;entryX=0.5;entryY=0;entryDx=0;entryDy=0;" edge="1" parent="WIyWlLk6GJQsqaUBKTNV-1" source="-zmCf4B3LudVhM_SFmna-2" target="-zmCf4B3LudVhM_SFmna-27">
          <mxGeometry relative="1" as="geometry" />
        </mxCell>
        <mxCell id="-zmCf4B3LudVhM_SFmna-2" value="Lihat beranda" style="shape=parallelogram;html=1;strokeWidth=2;perimeter=parallelogramPerimeter;whiteSpace=wrap;rounded=1;arcSize=12;size=0.23;" vertex="1" parent="WIyWlLk6GJQsqaUBKTNV-1">
          <mxGeometry x="120" y="240" width="100" height="60" as="geometry" />
        </mxCell>
        <mxCell id="-zmCf4B3LudVhM_SFmna-7" value="" style="edgeStyle=orthogonalEdgeStyle;rounded=0;orthogonalLoop=1;jettySize=auto;html=1;" edge="1" parent="WIyWlLk6GJQsqaUBKTNV-1" source="-zmCf4B3LudVhM_SFmna-4" target="-zmCf4B3LudVhM_SFmna-6">
          <mxGeometry relative="1" as="geometry" />
        </mxCell>
        <mxCell id="-zmCf4B3LudVhM_SFmna-4" value="Memilih Produk" style="whiteSpace=wrap;html=1;strokeWidth=2;rounded=1;arcSize=12;" vertex="1" parent="WIyWlLk6GJQsqaUBKTNV-1">
          <mxGeometry x="110" y="380" width="120" height="60" as="geometry" />
        </mxCell>
        <mxCell id="-zmCf4B3LudVhM_SFmna-28" value="" style="edgeStyle=orthogonalEdgeStyle;rounded=0;orthogonalLoop=1;jettySize=auto;html=1;" edge="1" parent="WIyWlLk6GJQsqaUBKTNV-1" source="-zmCf4B3LudVhM_SFmna-6" target="-zmCf4B3LudVhM_SFmna-27">
          <mxGeometry relative="1" as="geometry" />
        </mxCell>
        <mxCell id="-zmCf4B3LudVhM_SFmna-45" value="" style="edgeStyle=orthogonalEdgeStyle;rounded=0;orthogonalLoop=1;jettySize=auto;html=1;" edge="1" parent="WIyWlLk6GJQsqaUBKTNV-1" source="-zmCf4B3LudVhM_SFmna-6" target="-zmCf4B3LudVhM_SFmna-41">
          <mxGeometry relative="1" as="geometry" />
        </mxCell>
        <mxCell id="-zmCf4B3LudVhM_SFmna-6" value="Klik Detail Produk" style="whiteSpace=wrap;html=1;strokeWidth=2;rounded=1;arcSize=12;" vertex="1" parent="WIyWlLk6GJQsqaUBKTNV-1">
          <mxGeometry x="110" y="520" width="120" height="60" as="geometry" />
        </mxCell>
        <mxCell id="-zmCf4B3LudVhM_SFmna-25" value="&lt;p&gt;&lt;span style=&quot;background-color: transparent; color: light-dark(rgb(0, 0, 0), rgb(255, 255, 255));&quot;&gt;Alur Penggunaan Aplikasi RECOS&lt;/span&gt;&lt;/p&gt;&lt;p&gt;&lt;/p&gt;&lt;ol start=&quot;1&quot;&gt;&lt;li&gt;&lt;p&gt;&lt;b&gt;Mulai&lt;/b&gt;&lt;/p&gt;&lt;/li&gt;&lt;li&gt;&lt;p&gt;&lt;b&gt;Lihat Beranda&lt;/b&gt;&lt;/p&gt;&lt;/li&gt;&lt;li&gt;&lt;p&gt;&lt;b&gt;Pilih Produk&lt;/b&gt;&lt;/p&gt;&lt;/li&gt;&lt;li&gt;&lt;p&gt;&lt;b&gt;Cek Status Login?&lt;/b&gt;&lt;/p&gt;&lt;ul&gt;&lt;li&gt;&lt;p&gt;Jika &lt;b&gt;Sudah Login&lt;/b&gt;: Lanjut ke &lt;b&gt;Lihat Detail Produk&lt;/b&gt;.&lt;/p&gt;&lt;/li&gt;&lt;li&gt;&lt;p&gt;Jika &lt;b&gt;Belum Login&lt;/b&gt;: Muncul pop-up &lt;b&gt;Minta Login/Register&lt;/b&gt;.&lt;/p&gt;&lt;/li&gt;&lt;/ul&gt;&lt;/li&gt;&lt;li&gt;&lt;p&gt;&lt;b&gt;Pilih Tindakan Login/Register?&lt;/b&gt;&lt;/p&gt;&lt;ul&gt;&lt;li&gt;&lt;p&gt;Jika &lt;b&gt;Pilih Register&lt;/b&gt;: Isi &lt;b&gt;Form Register&lt;/b&gt;.&lt;/p&gt;&lt;ul&gt;&lt;li&gt;&lt;p&gt;&lt;b&gt;Akun Berhasil Dibuat&lt;/b&gt;.&lt;/p&gt;&lt;/li&gt;&lt;li&gt;&lt;p&gt;Kembali ke &lt;b&gt;Halaman Login&lt;/b&gt;.&lt;/p&gt;&lt;/li&gt;&lt;/ul&gt;&lt;/li&gt;&lt;li&gt;&lt;p&gt;Jika &lt;b&gt;Pilih Login&lt;/b&gt;: Masukkan &lt;b&gt;Email &amp;amp; Kata Sandi&lt;/b&gt;.&lt;/p&gt;&lt;ul&gt;&lt;li&gt;&lt;p&gt;&lt;b&gt;Login Berhasil?&lt;/b&gt;&lt;/p&gt;&lt;ul&gt;&lt;li&gt;&lt;p&gt;Jika &lt;b&gt;Ya&lt;/b&gt;: Lanjut ke &lt;b&gt;Lihat Detail Produk&lt;/b&gt;.&lt;/p&gt;&lt;/li&gt;&lt;li&gt;&lt;p&gt;Jika &lt;b&gt;Tidak&lt;/b&gt;: &lt;b&gt;Tampilkan Pesan Error&lt;/b&gt;.&lt;/p&gt;&lt;/li&gt;&lt;/ul&gt;&lt;/li&gt;&lt;/ul&gt;&lt;/li&gt;&lt;/ul&gt;&lt;/li&gt;&lt;li&gt;&lt;p&gt;&lt;b&gt;Lihat Detail Produk&lt;/b&gt;&lt;/p&gt;&lt;/li&gt;&lt;li&gt;&lt;p&gt;&lt;b&gt;Reservasi Produk&lt;/b&gt;&lt;/p&gt;&lt;/li&gt;&lt;li&gt;&lt;p&gt;&lt;b&gt;Selesai&lt;/b&gt;&lt;/p&gt;&lt;/li&gt;&lt;/ol&gt;" style="text;whiteSpace=wrap;html=1;" vertex="1" parent="WIyWlLk6GJQsqaUBKTNV-1">
          <mxGeometry x="670" y="-620" width="560" height="600" as="geometry" />
        </mxCell>
        <mxCell id="-zmCf4B3LudVhM_SFmna-26" value="&lt;h4&gt;Penjelasan Alur (Langkah demi Langkah)&lt;/h4&gt;&lt;p&gt;&lt;/p&gt;&lt;ol start=&quot;1&quot;&gt;&lt;li&gt;&lt;p&gt;&lt;b&gt;Mulai Aplikasi (Oval)&lt;/b&gt;: Pengguna membuka aplikasi RECOS.&lt;/p&gt;&lt;/li&gt;&lt;li&gt;&lt;p&gt;&lt;b&gt;Halaman Utama (Persegi Panjang)&lt;/b&gt;: Pengguna langsung melihat beranda (homepage) tanpa perlu &lt;i&gt;login&lt;/i&gt; terlebih dahulu. Di halaman ini, mereka bisa melihat produk-produk kostum secara umum.&lt;/p&gt;&lt;/li&gt;&lt;li&gt;&lt;p&gt;&lt;b&gt;Memilih Produk (Persegi Panjang)&lt;/b&gt;: Pengguna &lt;i&gt;scrolling&lt;/i&gt; dan menemukan kostum yang menarik.&lt;/p&gt;&lt;/li&gt;&lt;li&gt;&lt;p&gt;&lt;b&gt;Aksi Pengguna (Persegi Panjang)&lt;/b&gt;: Pengguna menekan salah satu produk untuk melihat detailnya.&lt;/p&gt;&lt;/li&gt;&lt;li&gt;&lt;p&gt;&lt;b&gt;Keputusan (Belah Ketupat)&lt;/b&gt;: &lt;b&gt;&quot;Sudah Login?&quot;&lt;/b&gt; Di sini, sistem mengecek status pengguna.&lt;/p&gt;&lt;ul&gt;&lt;li&gt;&lt;p&gt;&lt;b&gt;Tidak (Jalur kiri)&lt;/b&gt;: Pengguna belum &lt;i&gt;login&lt;/i&gt;.&lt;/p&gt;&lt;ul&gt;&lt;li&gt;&lt;p&gt;&lt;b&gt;Muncul Halaman Login/Register (Persegi Panjang)&lt;/b&gt;: Sistem menampilkan halaman yang meminta pengguna untuk &lt;i&gt;login&lt;/i&gt; atau mendaftar.&lt;/p&gt;&lt;/li&gt;&lt;li&gt;&lt;p&gt;&lt;b&gt;Keputusan (Belah Ketupat)&lt;/b&gt;: &lt;b&gt;&quot;Pilih Register atau Login?&quot;&lt;/b&gt;&lt;/p&gt;&lt;ul&gt;&lt;li&gt;&lt;p&gt;&lt;b&gt;Pilih Register&lt;/b&gt;:&lt;/p&gt;&lt;ul&gt;&lt;li&gt;&lt;p&gt;&lt;b&gt;Halaman Register (Persegi Panjang)&lt;/b&gt;: Pengguna mengisi data (nama, email, kata sandi).&lt;/p&gt;&lt;/li&gt;&lt;li&gt;&lt;p&gt;&lt;b&gt;Daftar Akun (Persegi Panjang)&lt;/b&gt;: Pengguna menyelesaikan pendaftaran.&lt;/p&gt;&lt;/li&gt;&lt;li&gt;&lt;p&gt;&lt;b&gt;Kembali ke Halaman Login (Garis Panah)&lt;/b&gt;: Setelah mendaftar, pengguna diarahkan kembali ke halaman &lt;i&gt;login&lt;/i&gt; untuk masuk dengan akun baru.&lt;/p&gt;&lt;/li&gt;&lt;/ul&gt;&lt;/li&gt;&lt;li&gt;&lt;p&gt;&lt;b&gt;Pilih Login&lt;/b&gt;:&lt;/p&gt;&lt;ul&gt;&lt;li&gt;&lt;p&gt;&lt;b&gt;Halaman Login (Persegi Panjang)&lt;/b&gt;: Pengguna memasukkan email dan kata sandi.&lt;/p&gt;&lt;/li&gt;&lt;li&gt;&lt;p&gt;&lt;b&gt;Tombol &quot;Login&quot; (Persegi Panjang)&lt;/b&gt;: Pengguna menekan tombol.&lt;/p&gt;&lt;/li&gt;&lt;li&gt;&lt;p&gt;&lt;b&gt;Login Berhasil? (Belah Ketupat)&lt;/b&gt;: Sistem memverifikasi data. Jika berhasil, pengguna bisa melanjutkan. Jika tidak, akan muncul pesan kesalahan.&lt;/p&gt;&lt;/li&gt;&lt;/ul&gt;&lt;/li&gt;&lt;/ul&gt;&lt;/li&gt;&lt;/ul&gt;&lt;/li&gt;&lt;/ul&gt;&lt;/li&gt;&lt;li&gt;&lt;p&gt;&lt;b&gt;Ya (Jalur kanan)&lt;/b&gt;: Pengguna sudah &lt;i&gt;login&lt;/i&gt;.&lt;/p&gt;&lt;/li&gt;&lt;li&gt;&lt;p&gt;&lt;b&gt;Menampilkan Detail Produk (Persegi Panjang)&lt;/b&gt;: Setelah berhasil &lt;i&gt;login&lt;/i&gt;, pengguna bisa melihat detail lengkap dari kostum yang dipilih (harga, deskripsi, ukuran, dll.).&lt;/p&gt;&lt;/li&gt;&lt;li&gt;&lt;p&gt;&lt;b&gt;Reservasi Produk (Persegi Panjang)&lt;/b&gt;: Pengguna dapat melanjutkan proses untuk reservasi kostum.&lt;/p&gt;&lt;/li&gt;&lt;li&gt;&lt;p&gt;&lt;b&gt;Selesai (Oval)&lt;/b&gt;: Alur berhasil.&lt;/p&gt;&lt;/li&gt;&lt;/ol&gt;" style="text;whiteSpace=wrap;html=1;" vertex="1" parent="WIyWlLk6GJQsqaUBKTNV-1">
          <mxGeometry x="1220" y="-650" width="560" height="840" as="geometry" />
        </mxCell>
        <mxCell id="-zmCf4B3LudVhM_SFmna-31" value="" style="edgeStyle=orthogonalEdgeStyle;rounded=0;orthogonalLoop=1;jettySize=auto;html=1;" edge="1" parent="WIyWlLk6GJQsqaUBKTNV-1" source="-zmCf4B3LudVhM_SFmna-27" target="-zmCf4B3LudVhM_SFmna-30">
          <mxGeometry relative="1" as="geometry" />
        </mxCell>
        <mxCell id="-zmCf4B3LudVhM_SFmna-27" value="Masuk" style="rhombus;whiteSpace=wrap;html=1;strokeWidth=2;rounded=1;arcSize=12;" vertex="1" parent="WIyWlLk6GJQsqaUBKTNV-1">
          <mxGeometry x="330" y="510" width="80" height="80" as="geometry" />
        </mxCell>
        <mxCell id="-zmCf4B3LudVhM_SFmna-34" value="" style="edgeStyle=orthogonalEdgeStyle;rounded=0;orthogonalLoop=1;jettySize=auto;html=1;" edge="1" parent="WIyWlLk6GJQsqaUBKTNV-1" source="-zmCf4B3LudVhM_SFmna-30" target="-zmCf4B3LudVhM_SFmna-33">
          <mxGeometry relative="1" as="geometry" />
        </mxCell>
        <mxCell id="-zmCf4B3LudVhM_SFmna-36" value="" style="edgeStyle=orthogonalEdgeStyle;rounded=0;orthogonalLoop=1;jettySize=auto;html=1;" edge="1" parent="WIyWlLk6GJQsqaUBKTNV-1" source="-zmCf4B3LudVhM_SFmna-30" target="-zmCf4B3LudVhM_SFmna-35">
          <mxGeometry relative="1" as="geometry" />
        </mxCell>
        <mxCell id="-zmCf4B3LudVhM_SFmna-30" value="Masuk / Daftar" style="shape=parallelogram;html=1;strokeWidth=2;perimeter=parallelogramPerimeter;whiteSpace=wrap;rounded=1;arcSize=12;size=0.23;" vertex="1" parent="WIyWlLk6GJQsqaUBKTNV-1">
          <mxGeometry x="480" y="520" width="100" height="60" as="geometry" />
        </mxCell>
        <mxCell id="-zmCf4B3LudVhM_SFmna-33" value="Masuk" style="whiteSpace=wrap;html=1;strokeWidth=2;rounded=1;arcSize=12;" vertex="1" parent="WIyWlLk6GJQsqaUBKTNV-1">
          <mxGeometry x="650" y="520" width="120" height="60" as="geometry" />
        </mxCell>
        <mxCell id="-zmCf4B3LudVhM_SFmna-35" value="Daftar" style="whiteSpace=wrap;html=1;strokeWidth=2;rounded=1;arcSize=12;" vertex="1" parent="WIyWlLk6GJQsqaUBKTNV-1">
          <mxGeometry x="470" y="660" width="120" height="60" as="geometry" />
        </mxCell>
        <mxCell id="-zmCf4B3LudVhM_SFmna-44" value="" style="edgeStyle=orthogonalEdgeStyle;rounded=0;orthogonalLoop=1;jettySize=auto;html=1;" edge="1" parent="WIyWlLk6GJQsqaUBKTNV-1" source="-zmCf4B3LudVhM_SFmna-41" target="-zmCf4B3LudVhM_SFmna-43">
          <mxGeometry relative="1" as="geometry" />
        </mxCell>
        <mxCell id="-zmCf4B3LudVhM_SFmna-41" value="Kunjungi akun penjual?" style="rhombus;whiteSpace=wrap;html=1;strokeWidth=2;rounded=1;arcSize=12;" vertex="1" parent="WIyWlLk6GJQsqaUBKTNV-1">
          <mxGeometry x="130" y="650" width="80" height="80" as="geometry" />
        </mxCell>
        <mxCell id="-zmCf4B3LudVhM_SFmna-43" value="Halaman akun penjual" style="shape=parallelogram;html=1;strokeWidth=2;perimeter=parallelogramPerimeter;whiteSpace=wrap;rounded=1;arcSize=12;size=0.23;" vertex="1" parent="WIyWlLk6GJQsqaUBKTNV-1">
          <mxGeometry x="120" y="780" width="100" height="60" as="geometry" />
        </mxCell>
      </root>
    </mxGraphModel>
  </diagram>
</mxfile>
